<svg width="54" height="54" viewBox="0 0 54 54" fill="none" xmlns="http://www.w3.org/2000/svg">
<g clip-path="url(#clip0_2348_34954)">
<path fill-rule="evenodd" clip-rule="evenodd" d="M27.0001 0C19.8392 0 12.9716 2.84464 7.90814 7.90814C2.84464 12.9716 0 19.8392 0 27.0001C0 34.161 2.84464 41.0285 7.90814 46.092C12.9716 51.1555 19.8392 54.0002 27.0001 54.0002C34.161 54.0002 41.0285 51.1555 46.092 46.092C51.1555 41.0285 54.0002 34.161 54.0002 27.0001C54.0002 19.8392 51.1555 12.9716 46.092 7.90814C41.0285 2.84464 34.161 0 27.0001 0ZM21.3773 11.25C21.4911 11.2541 21.6009 11.2925 21.6923 11.3603L26.7548 15.0402L31.7881 11.3794C31.8859 11.3086 32.0038 11.2712 32.1245 11.2725C32.2001 11.2737 32.2747 11.2902 32.3439 11.3209L44.1406 16.4442C44.2317 16.4836 44.3107 16.5463 44.3697 16.626C44.4286 16.7058 44.4654 16.7997 44.4764 16.8983C44.4874 16.9968 44.4721 17.0966 44.4321 17.1873C44.3921 17.2781 44.3288 17.3566 44.2486 17.4151L39.5023 20.8654C39.5038 20.8692 39.5053 20.8729 39.5068 20.8767C39.5083 20.8804 39.5098 20.8842 39.5113 20.8879L44.7695 24.7107C44.8491 24.7692 44.9119 24.8477 44.9515 24.9382C44.9912 25.0287 45.0063 25.128 44.9953 25.2262C44.9844 25.3244 44.9478 25.418 44.8892 25.4975C44.8306 25.5771 44.7521 25.6398 44.6615 25.6793L39.3751 27.9755V36.2679C39.3756 36.311 39.371 36.354 39.3616 36.3961C39.3918 36.5265 39.3745 36.6633 39.3129 36.7821C39.2512 36.9009 39.1492 36.9938 39.0253 37.0441L27.2307 42.0774C27.2233 42.0813 27.2158 42.0851 27.2082 42.0886C27.1913 42.0955 27.174 42.1015 27.1565 42.1066C27.1427 42.1109 27.1289 42.1147 27.1148 42.1179C27.1103 42.1179 27.1058 42.1179 27.1013 42.1179C27.0983 42.1179 27.0953 42.1179 27.0923 42.1179C27.0764 42.1224 27.0602 42.1261 27.044 42.1291C27.0073 42.1328 26.9704 42.1328 26.9337 42.1291C26.9326 42.1291 26.9315 42.1291 26.9303 42.1291C26.9266 42.1292 26.9228 42.1292 26.9191 42.1291C26.9039 42.126 26.8889 42.1223 26.8741 42.1179C26.8669 42.1143 26.8598 42.1105 26.8527 42.1066C26.8475 42.1067 26.8422 42.1067 26.837 42.1066C26.8133 42.1007 26.79 42.0932 26.7672 42.0841L14.9749 37.0509C14.851 37.0008 14.7489 36.9081 14.6871 36.7896C14.6252 36.671 14.6076 36.5343 14.6374 36.404C14.6283 36.3615 14.6242 36.3181 14.625 36.2746V28.0306L9.33753 25.7345C9.24657 25.695 9.16767 25.6321 9.10882 25.5523C9.04996 25.4725 9.01325 25.3786 9.0024 25.28C8.99155 25.1815 9.00695 25.0818 9.04704 24.9911C9.08712 24.9004 9.15047 24.8219 9.23066 24.7636L14.2932 21.0826L9.23066 17.4027C9.15022 17.3443 9.08668 17.2657 9.0465 17.1748C9.00633 17.0839 8.99094 16.984 9.00191 16.8853C9.01289 16.7865 9.04983 16.6924 9.10898 16.6126C9.16813 16.5327 9.24738 16.47 9.33866 16.4307L21.1377 11.3074C21.1954 11.2819 21.257 11.2663 21.3199 11.2613V11.2523C21.339 11.2506 21.3582 11.2498 21.3773 11.25ZM21.2918 12.4695L10.6898 17.0753L15.2236 20.3716L25.8863 15.8119L21.2918 12.4695ZM32.1897 12.4898L27.8022 15.6792L38.465 20.2388L42.7918 17.0944L32.1897 12.4898ZM27.0001 16.5601L16.4419 21.0724L19.2421 22.2706L23.6026 24.1336L27.0001 25.5871L37.5515 21.0736L27.0001 16.5601ZM38.7946 21.7677L28.1296 26.3262L32.7084 29.6562L43.3104 25.0505L38.7946 21.7677ZM15.2472 21.7846L10.6898 25.0988L21.2918 29.7035L25.9077 26.3465L23.1616 25.1708L18.7999 23.3056L15.2472 21.7868V21.7846ZM27.5626 27.305V40.7251L38.2501 36.1644V28.4772L32.8614 30.8172C32.7719 30.8558 32.674 30.8705 32.5771 30.8598C32.4803 30.8492 32.3879 30.8136 32.309 30.7565L27.5626 27.305ZM26.4376 27.35L21.6912 30.8015C21.6122 30.859 21.5197 30.8949 21.4226 30.9057C21.3256 30.9166 21.2274 30.902 21.1377 30.8634L15.7501 28.5233V36.1621L26.4376 40.724V27.35ZM32.0345 33.5791C32.168 33.5719 32.2998 33.6124 32.4061 33.6936C32.5125 33.7747 32.5864 33.891 32.6147 34.0217C32.643 34.1524 32.6238 34.289 32.5606 34.4068C32.4973 34.5246 32.3942 34.6161 32.2696 34.6647L29.2782 35.9427C29.141 36.0015 28.986 36.0034 28.8474 35.9479C28.7088 35.8924 28.5979 35.7841 28.5391 35.6469C28.4803 35.5096 28.4785 35.3546 28.534 35.216C28.5894 35.0774 28.6977 34.9665 28.835 34.9077L31.8275 33.6297C31.8907 33.6014 31.9586 33.585 32.0277 33.5814C32.03 33.5814 32.0322 33.5814 32.0345 33.5814V33.5791ZM35.0247 34.3452C35.1583 34.338 35.29 34.3786 35.3964 34.4597C35.5027 34.5408 35.5767 34.6571 35.605 34.7879C35.6333 34.9186 35.6141 35.0551 35.5508 35.1729C35.4876 35.2908 35.3844 35.3822 35.2599 35.4309L32.2696 36.71L29.2782 37.9869C29.2098 38.02 29.1354 38.0389 29.0595 38.0424C28.9835 38.046 28.9077 38.0341 28.8365 38.0075C28.7653 37.9809 28.7002 37.9401 28.6452 37.8877C28.5901 37.8353 28.5463 37.7722 28.5163 37.7024C28.4864 37.6325 28.4709 37.5573 28.4707 37.4813C28.4706 37.4053 28.4859 37.3301 28.5157 37.2601C28.5455 37.1902 28.5891 37.127 28.644 37.0744C28.6989 37.0218 28.7638 36.9809 28.835 36.9541L31.8275 35.675L34.8177 34.3959C34.8809 34.3675 34.9488 34.3512 35.018 34.3475C35.0202 34.3475 35.0225 34.3475 35.0247 34.3475V34.3452Z" fill="white"/>
</g>
<defs>
<clipPath id="clip0_2348_34954">
<rect width="54.0002" height="54.0002" fill="white"/>
</clipPath>
</defs>
</svg>
